<?xml version="1.0" encoding="utf-8"?>
<!-- Generator: Adobe Illustrator 16.0.0, SVG Export Plug-In . SVG Version: 6.00 Build 0)  -->
<!DOCTYPE svg PUBLIC "-//W3C//DTD SVG 1.1//EN" "http://www.w3.org/Graphics/SVG/1.1/DTD/svg11.dtd">
<svg version="1.1" id="Layer_1" xmlns="http://www.w3.org/2000/svg" xmlns:xlink="http://www.w3.org/1999/xlink" x="0px" y="0px"
	 width="24px" height="24px" viewBox="0 0 24 24" enable-background="new 0 0 24 24" xml:space="preserve">
<path d="M4.671,22H2.358V2h2.313V22z M13.901,17.5c-4.279,0-7.76-3.473-7.76-7.74c0-4.279,3.481-7.76,7.76-7.76
	c4.268,0,7.74,3.481,7.74,7.76C21.642,14.027,18.169,17.5,13.901,17.5z M13.901,4c-3.176,0-5.76,2.584-5.76,5.76
	c0,3.165,2.584,5.74,5.76,5.74c3.165,0,5.74-2.575,5.74-5.74C19.642,6.584,17.066,4,13.901,4z"/>
</svg>
