<?xml version="1.0" encoding="utf-8"?>
<!-- Generator: Adobe Illustrator 16.0.0, SVG Export Plug-In . SVG Version: 6.00 Build 0)  -->
<!DOCTYPE svg PUBLIC "-//W3C//DTD SVG 1.1//EN" "http://www.w3.org/Graphics/SVG/1.1/DTD/svg11.dtd">
<svg version="1.1" id="Layer_1" xmlns="http://www.w3.org/2000/svg" xmlns:xlink="http://www.w3.org/1999/xlink" x="0px" y="0px"
	 width="24px" height="24px" viewBox="0 0 24 24" enable-background="new 0 0 24 24" xml:space="preserve">
<g>
	<path d="M22.814,11.16c0-0.658-0.034-1.385-0.102-2.156c-0.066-0.877-0.168-1.554-0.31-2.068c-0.332-1.198-1.142-2.007-2.344-2.34
		c-1.147-0.312-3.856-0.47-8.082-0.47c-0.003,0-0.007,0-0.011,0L10.41,4.185c-1.174,0-2.396,0.034-3.63,0.101
		C5.377,4.35,4.474,4.448,3.936,4.597C2.738,4.93,1.929,5.74,1.596,6.941c-0.313,1.151-0.471,2.865-0.468,5.122l0.058,0.777
		c0,0.658,0.035,1.385,0.103,2.155c0.066,0.877,0.167,1.554,0.309,2.069c0.333,1.198,1.143,2.007,2.344,2.341
		c1.148,0.312,3.86,0.47,8.059,0.47h0.017l1.573-0.061c1.171,0,2.393-0.034,3.629-0.101c1.4-0.064,2.304-0.162,2.846-0.311
		c1.198-0.332,2.007-1.142,2.341-2.344c0.312-1.15,0.47-2.864,0.468-5.124L22.814,11.16z M21.125,12
		c0,2.024-0.141,3.614-0.407,4.596c-0.166,0.6-0.522,0.955-1.119,1.121c-0.398,0.109-1.204,0.191-2.467,0.25
		c-1.206,0.064-2.404,0.098-3.575,0.098l-1.566,0.061c-5.487,0-7.135-0.285-7.586-0.407c-0.599-0.166-0.955-0.522-1.121-1.12
		c-0.111-0.404-0.193-0.974-0.251-1.745c-0.064-0.737-0.097-1.407-0.099-2.076L2.875,12c0-2.024,0.141-3.614,0.408-4.596
		c0.166-0.599,0.522-0.955,1.12-1.121C4.799,6.174,5.626,6.09,6.867,6.034c1.204-0.065,2.402-0.099,3.576-0.1l1.563-0.059
		c5.496,0,7.14,0.286,7.589,0.408c0.6,0.166,0.955,0.522,1.121,1.118c0.11,0.404,0.192,0.974,0.251,1.745
		c0.064,0.738,0.097,1.408,0.099,2.078L21.125,12z"/>
	<path d="M9.125,16.517L16.938,12L9.125,7.483V16.517z M13.441,12l-2.566,1.483v-2.967L13.441,12z"/>
</g>
</svg>
